<svg width="61" height="61" viewBox="0 0 61 61" fill="none" xmlns="http://www.w3.org/2000/svg">
<path d="M23.9905 31.9189L22.2522 33.7256V38.5303H20.3772V24.3115H22.2522V31.3428L28.5705 24.3115H30.8362L25.2405 30.5908L31.2756 38.5303H29.0295L23.9905 31.9189ZM37.1057 32.1924C35.4976 31.7301 34.3257 31.1637 33.5901 30.4932C32.8609 29.8161 32.4963 28.9827 32.4963 27.9932C32.4963 26.8734 32.9423 25.9489 33.8342 25.2197C34.7326 24.484 35.898 24.1162 37.3303 24.1162C38.3069 24.1162 39.176 24.305 39.9377 24.6826C40.706 25.0602 41.2984 25.5811 41.7151 26.2451C42.1382 26.9092 42.3498 27.6351 42.3498 28.4229H40.4651C40.4651 27.5635 40.1916 26.8896 39.6448 26.4014C39.0979 25.9066 38.3264 25.6592 37.3303 25.6592C36.4058 25.6592 35.6832 25.8643 35.1623 26.2744C34.648 26.6781 34.3908 27.2412 34.3908 27.9639C34.3908 28.5433 34.635 29.0348 35.1233 29.4385C35.6181 29.8356 36.4547 30.2002 37.633 30.5322C38.8179 30.8643 39.7424 31.2321 40.4065 31.6357C41.077 32.0329 41.5718 32.4984 41.8908 33.0322C42.2164 33.5661 42.3791 34.1943 42.3791 34.917C42.3791 36.0693 41.9299 36.9938 41.0315 37.6904C40.133 38.3805 38.9319 38.7256 37.428 38.7256C36.4514 38.7256 35.5399 38.54 34.6936 38.1689C33.8472 37.7913 33.1929 37.277 32.7307 36.626C32.275 35.9749 32.0471 35.236 32.0471 34.4092H33.9319C33.9319 35.2686 34.2476 35.9489 34.8791 36.4502C35.5172 36.945 36.3668 37.1924 37.428 37.1924C38.4175 37.1924 39.176 36.9906 39.7033 36.5869C40.2307 36.1833 40.4944 35.6331 40.4944 34.9365C40.4944 34.2399 40.2502 33.7028 39.7619 33.3252C39.2737 32.9411 38.3882 32.5635 37.1057 32.1924Z" fill="#B5C3D6"/>
<circle cx="30.9338" cy="30.5947" r="23.5" stroke="#B5C3D6" stroke-width="3"/>
<g style="mix-blend-mode:multiply">
<rect x="0.933838" y="0.594727" width="60" height="60" rx="7" fill="white"/>
</g>
</svg>
