<svg width="51" height="51" viewBox="0 0 51 51" fill="none" xmlns="http://www.w3.org/2000/svg">
<path d="M17.66 27.2373L15.9217 29.0439V33.8486H14.0467V19.6299H15.9217V26.6611L22.2401 19.6299H24.5057L18.91 25.9092L24.9452 33.8486H22.6991L17.66 27.2373ZM30.7752 27.5107C29.1672 27.0485 27.9953 26.4821 27.2596 25.8115C26.5305 25.1344 26.1659 24.3011 26.1659 23.3115C26.1659 22.1917 26.6118 21.2673 27.5038 20.5381C28.4022 19.8024 29.5676 19.4346 30.9999 19.4346C31.9764 19.4346 32.8456 19.6234 33.6073 20.001C34.3755 20.3786 34.968 20.8994 35.3846 21.5635C35.8078 22.2275 36.0194 22.9535 36.0194 23.7412H34.1346C34.1346 22.8818 33.8612 22.208 33.3143 21.7197C32.7674 21.2249 31.996 20.9775 30.9999 20.9775C30.0754 20.9775 29.3527 21.1826 28.8319 21.5928C28.3176 21.9964 28.0604 22.5596 28.0604 23.2822C28.0604 23.8617 28.3045 24.3532 28.7928 24.7568C29.2876 25.154 30.1242 25.5186 31.3026 25.8506C32.4875 26.1826 33.412 26.5505 34.076 26.9541C34.7466 27.3512 35.2414 27.8167 35.5604 28.3506C35.8859 28.8844 36.0487 29.5127 36.0487 30.2354C36.0487 31.3877 35.5995 32.3122 34.701 33.0088C33.8026 33.6989 32.6014 34.0439 31.0975 34.0439C30.121 34.0439 29.2095 33.8584 28.3631 33.4873C27.5168 33.1097 26.8625 32.5954 26.4002 31.9443C25.9445 31.2933 25.7167 30.5544 25.7167 29.7275H27.6014C27.6014 30.5869 27.9172 31.2673 28.5487 31.7686C29.1867 32.2633 30.0363 32.5107 31.0975 32.5107C32.0871 32.5107 32.8456 32.3089 33.3729 31.9053C33.9002 31.5016 34.1639 30.9515 34.1639 30.2549C34.1639 29.5583 33.9198 29.0212 33.4315 28.6436C32.9432 28.2594 32.0578 27.8818 30.7752 27.5107Z" fill="#B5C3D6"/>
<circle cx="25.2013" cy="25.9121" r="23.5" stroke="#B5C3D6" stroke-width="3"/>
</svg>
