<svg xmlns="http://www.w3.org/2000/svg" xmlns:xlink="http://www.w3.org/1999/xlink"><symbol id="icon-email" viewBox="0 0 26 20">
  <path d="M24.2273 0H1.77273C0.768182 0 0 0.764706 0 1.76471V18.2353C0 19.2353 0.768182 20 1.77273 20H24.2273C25.2318 20 26 19.2353 26 18.2353V1.76471C26 0.764706 25.2318 0 24.2273 0ZM24.2273 17L19.5591 12.3529C19.2045 12 18.6727 12 18.3182 12.3529C17.9636 12.7059 17.9636 13.2353 18.3182 13.5882L22.9864 18.2353H3.01362L7.68182 13.5882C8.03636 13.2353 8.03636 12.7059 7.68182 12.3529C7.32727 12 6.79547 12 6.44092 12.3529L1.77273 17V5.70585L12.4091 13.7059C12.5864 13.8236 12.7636 13.8823 12.9409 13.8823C13.1182 13.8823 13.2954 13.8236 13.4727 13.7059L24.2273 5.70585V17ZM24.2273 1.76471V3.4706L12.9409 11.8235L1.77273 3.4706V1.76471H24.2273Z" fill="#b5c3d6"/>
</symbol><symbol id="icon-github" viewBox="0 0 48 48">
  <path fill="#b5c3d6" d="M41,24c0,9.4-7.6,17-17,17S7,33.4,7,24S14.6,7,24,7S41,14.6,41,24z"/>
  <path fill="#fff" d="M21 41v-5.5c0-.3.2-.5.5-.5s.5.2.5.5V41h2v-6.5c0-.3.2-.5.5-.5s.5.2.5.5V41h2v-5.5c0-.3.2-.5.5-.5s.5.2.5.5V41h1.8c.2-.3.2-.6.2-1.1V36c0-2.2-1.9-5.2-4.3-5.2h-2.5c-2.3 0-4.3 3.1-4.3 5.2v3.9c0 .4.1.8.2 1.1L21 41 21 41zM40.1 26.4C40.1 26.4 40.1 26.4 40.1 26.4c0 0-1.3-.4-2.4-.4 0 0-.1 0-.1 0-1.1 0-2.9.3-2.9.3-.1 0-.1 0-.1-.1 0-.1 0-.1.1-.1.1 0 2-.3 3.1-.3 1.1 0 2.4.4 2.5.4.1 0 .1.1.1.2C40.2 26.3 40.2 26.4 40.1 26.4zM39.8 27.2C39.8 27.2 39.8 27.2 39.8 27.2c0 0-1.4-.4-2.6-.4-.9 0-3 .2-3.1.2-.1 0-.1 0-.1-.1 0-.1 0-.1.1-.1.1 0 2.2-.2 3.1-.2 1.3 0 2.6.4 2.6.4.1 0 .1.1.1.2C39.9 27.1 39.9 27.2 39.8 27.2zM7.8 26.4c-.1 0-.1 0-.1-.1 0-.1 0-.1.1-.2.8-.2 2.4-.5 3.3-.5.8 0 3.5.2 3.6.2.1 0 .1.1.1.1 0 .1-.1.1-.1.1 0 0-2.7-.2-3.5-.2C10.1 26 8.6 26.2 7.8 26.4 7.8 26.4 7.8 26.4 7.8 26.4zM8.2 27.9c0 0-.1 0-.1-.1 0-.1 0-.1 0-.2.1 0 1.4-.8 2.9-1 1.3-.2 4 .1 4.2.1.1 0 .1.1.1.1 0 .1-.1.1-.1.1 0 0 0 0 0 0 0 0-2.8-.3-4.1-.1C9.6 27.1 8.2 27.9 8.2 27.9 8.2 27.9 8.2 27.9 8.2 27.9z"/>
  <path fill="#fff" d="M14.2,23.5c0-4.4,4.6-8.5,10.3-8.5c5.7,0,10.3,4,10.3,8.5S31.5,31,24.5,31S14.2,27.9,14.2,23.5z"/>
  <path fill="#fff" d="M28.6 16.3c0 0 1.7-2.3 4.8-2.3 1.2 1.2.4 4.8 0 5.8L28.6 16.3zM20.4 16.3c0 0-1.7-2.3-4.8-2.3-1.2 1.2-.4 4.8 0 5.8L20.4 16.3zM20.1 35.9c0 0-2.3 0-2.8 0-1.2 0-2.3-.5-2.8-1.5-.6-1.1-1.1-2.3-2.6-3.3-.3-.2-.1-.4.4-.4.5.1 1.4.2 2.1 1.1.7.9 1.5 2 2.8 2 1.3 0 2.7 0 3.5-.9L20.1 35.9z"/>
  <path fill="#b5c3d6" d="M24,4C13,4,4,13,4,24s9,20,20,20s20-9,20-20S35,4,24,4z M24,40c-8.8,0-16-7.2-16-16S15.2,8,24,8 s16,7.2,16,16S32.8,40,24,40z"/>
</symbol><symbol id="icon-phone" viewBox="0 0 17 24">
  <path d="M1.45641 6.62432C1.37185 5.42623 1.63759 4.24606 2.3412 3.29684C2.9512 2.43632 3.74541 1.96636 4.70269 1.69172C5.50898 1.4525 6.03745 1.74561 6.26998 2.64204C6.60217 3.98224 7.07628 5.3225 7.24841 6.73361C7.30277 7.35485 6.90114 8.23322 6.46629 8.6856C5.37614 9.75888 5.60263 10.5399 6.43006 12.1643C6.68675 12.6881 7.09442 13.5934 7.88864 14.7919C8.71607 15.9992 9.15395 16.6472 10.2169 16.0975C11.3977 15.5035 12.2583 15.8855 13.1492 16.8444C13.7531 17.5369 14.4175 18.1318 15.0215 18.8243C15.8942 19.8542 15.8549 20.5641 15.1725 21.2915C13.9434 22.6309 11.9141 23.0736 10.4042 22.1766C9.5707 21.6881 8.74024 21.0487 8.0789 20.303C5.16477 16.9825 3.06297 13.1212 1.79765 8.76321C1.59532 8.02654 1.50171 7.28104 1.45641 6.62432Z" stroke="#b5c3d6" stroke-width="2" stroke-miterlimit="10" fill="none"/>
</symbol><symbol id="icon-telegram" viewBox="0 0 48 48">
  <path fill="#b5c3d6" d="M24 4A20 20 0 1 0 24 44A20 20 0 1 0 24 4Z"/>
  <path fill="#fff" d="M33.95,15l-3.746,19.126c0,0-0.161,0.874-1.245,0.874c-0.576,0-0.873-0.274-0.873-0.274l-8.114-6.733 l-3.97-2.001l-5.095-1.355c0,0-0.907-0.262-0.907-1.012c0-0.625,0.933-0.923,0.933-0.923l21.316-8.468 c-0.001-0.001,0.651-0.235,1.126-0.234C33.667,14,34,14.125,34,14.5C34,14.75,33.95,15,33.95,15z"/>
  <path fill="#b0bec5" d="M23,30.505l-3.426,3.374c0,0-0.149,0.115-0.348,0.12c-0.069,0.002-0.143-0.009-0.219-0.043 l0.964-5.965L23,30.505z"/>
  <path fill="#cfd8dc" d="M29.897,18.196c-0.169-0.22-0.481-0.26-0.701-0.093L16,26c0,0,2.106,5.892,2.427,6.912 c0.322,1.021,0.58,1.045,0.58,1.045l0.964-5.965l9.832-9.096C30.023,18.729,30.064,18.416,29.897,18.196z"/>
</symbol></svg>